<svg id="svg" class="path" style="background-color: rgb(131, 163, 72);">
  <path fill="#7c9c45" stroke="#7c9c45" d="M -0 771 L 0 0 C 50 0, 250 -43, 300 -43 C 350 -43, 550 43, 600 43 C 650 43, 850 -43, 900 -43 L 770 0 L 770 771 Z"></path>
  <path fill="#749642" stroke="#749642" d="M -0 771 L 0 38 C 50 38, 250 -5, 300 -5 C 350 -5, 550 81, 600 81 C 650 81, 850 -5, 900 -5 L 770 38 L 770 771 Z"></path>
  <path fill="#6d8f3f" stroke="#6d8f3f" d="M -0 771 L 0 77 C 50 77, 250 34, 300 34 C 350 34, 550 120, 600 120 C 650 120, 850 34, 900 34 L 770 77 L 770 771 Z"></path>
  <path fill="#66883c" stroke="#66883c" d="M -0 771 L 0 115 C 50 115, 250 72, 300 72 C 350 72, 550 158, 600 158 C 650 158, 850 72, 900 72 L 770 115 L 770 771 Z"></path>
  <path fill="#608239" stroke="#608239" d="M -0 771 L 0 154 C 50 154, 250 111, 300 111 C 350 111, 550 197, 600 197 C 650 197, 850 111, 900 111 L 770 154 L 770 771 Z"></path>
  <path fill="#597b36" stroke="#597b36" d="M -0 771 L 0 192 C 50 192, 250 149, 300 149 C 350 149, 550 235, 600 235 C 650 235, 850 149, 900 149 L 770 192 L 770 771 Z"></path>
  <path fill="#527533" stroke="#527533" d="M -0 771 L 0 231 C 50 231, 250 188, 300 188 C 350 188, 550 274, 600 274 C 650 274, 850 188, 900 188 L 770 231 L 770 771 Z"></path>
  <path fill="#4c6e30" stroke="#4c6e30" d="M -0 771 L 0 269 C 50 269, 250 226, 300 226 C 350 226, 550 312, 600 312 C 650 312, 850 226, 900 226 L 770 269 L 770 771 Z"></path>
  <path fill="#46682d" stroke="#46682d" d="M -0 771 L 0 308 C 50 308, 250 265, 300 265 C 350 265, 550 351, 600 351 C 650 351, 850 265, 900 265 L 770 308 L 770 771 Z"></path>
  <path fill="#40612a" stroke="#40612a" d="M -0 771 L 0 346 C 50 346, 250 303, 300 303 C 350 303, 550 389, 600 389 C 650 389, 850 303, 900 303 L 770 346 L 770 771 Z"></path>
  <path fill="#3a5b27" stroke="#3a5b27" d="M -0 771 L 0 385 C 50 385, 250 342, 300 342 C 350 342, 550 428, 600 428 C 650 428, 850 342, 900 342 L 770 385 L 770 771 Z"></path>
  <path fill="#345524" stroke="#345524" d="M -0 771 L 0 424 C 50 424, 250 381, 300 381 C 350 381, 550 467, 600 467 C 650 467, 850 381, 900 381 L 770 424 L 770 771 Z"></path>
  <path fill="#2f4f21" stroke="#2f4f21" d="M -0 771 L 0 462 C 50 462, 250 419, 300 419 C 350 419, 550 505, 600 505 C 650 505, 850 419, 900 419 L 770 462 L 770 771 Z"></path>
  <path fill="#29491e" stroke="#29491e" d="M -0 771 L 0 501 C 50 501, 250 458, 300 458 C 350 458, 550 544, 600 544 C 650 544, 850 458, 900 458 L 770 501 L 770 771 Z"></path>
  <path fill="#24421b" stroke="#24421b" d="M -0 771 L 0 539 C 50 539, 250 496, 300 496 C 350 496, 550 582, 600 582 C 650 582, 850 496, 900 496 L 770 539 L 770 771 Z"></path>
  <path fill="#1f3c18" stroke="#1f3c18" d="M -0 771 L 0 578 C 50 578, 250 535, 300 535 C 350 535, 550 621, 600 621 C 650 621, 850 535, 900 535 L 770 578 L 770 771 Z"></path>
  <path fill="#1a3714" stroke="#1a3714" d="M -0 771 L 0 616 C 50 616, 250 573, 300 573 C 350 573, 550 659, 600 659 C 650 659, 850 573, 900 573 L 770 616 L 770 771 Z"></path>
  <path fill="#153111" stroke="#153111" d="M -0 771 L 0 655 C 50 655, 250 612, 300 612 C 350 612, 550 698, 600 698 C 650 698, 850 612, 900 612 L 770 655 L 770 771 Z"></path>
  <path fill="#112b0e" stroke="#112b0e" d="M -0 771 L 0 693 C 50 693, 250 650, 300 650 C 350 650, 550 736, 600 736 C 650 736, 850 650, 900 650 L 770 693 L 770 771 Z"></path>
  <path fill="#0d2509" stroke="#0d2509" d="M -0 771 L 0 732 C 50 732, 250 689, 300 689 C 350 689, 550 775, 600 775 C 650 775, 850 689, 900 689 L 770 732 L 770 771 Z"></path>
  <path fill="#092003" stroke="#092003" d="M -0 771 L 0 771 C 50 771, 250 728, 300 728 C 350 728, 550 814, 600 814 C 650 814, 850 728, 900 728 L 770 771 L 770 771 Z"></path>
</svg>
