<svg id="svg" class="path" style="background-color: rgb(208, 232, 74);">
  <path fill="#d1de41" stroke="#d1de41" d="M -273 1044 L -273 0 C -228.66666666666666 0, -51.333333333333336 -31, -7 -31 C 37.333333333333336 -31, 214.66666666666666 31, 259 31 C 303.3333333333333 31, 480.6666666666667 -31, 525 -31 C 569.3333333333334 -31, 746.6666666666666 31, 791 31 L 1043 0 L 1043 1044 Z"></path>
  <path fill="#d1d338" stroke="#d1d338" d="M -273 1044 L -260 36 C -215.66666666666666 36, -38.333333333333336 5, 6 5 C 50.333333333333336 5, 227.66666666666666 67, 272 67 C 316.3333333333333 67, 493.6666666666667 5, 538 5 C 582.3333333333334 5, 759.6666666666666 67, 804 67 L 1043 36 L 1043 1044 Z"></path>
  <path fill="#d0c930" stroke="#d0c930" d="M -273 1044 L -247 73 C -202.66666666666666 73, -25.333333333333336 42, 19 42 C 63.333333333333336 42, 240.66666666666666 104, 285 104 C 329.3333333333333 104, 506.6666666666667 42, 551 42 C 595.3333333333334 42, 772.6666666666666 104, 817 104 L 1043 73 L 1043 1044 Z"></path>
  <path fill="#cfbf28" stroke="#cfbf28" d="M -273 1044 L -234 110 C -189.66666666666666 110, -12.333333333333336 79, 32 79 C 76.33333333333334 79, 253.66666666666666 141, 298 141 C 342.3333333333333 141, 519.6666666666666 79, 564 79 C 608.3333333333334 79, 785.6666666666666 141, 830 141 L 1043 110 L 1043 1044 Z"></path>
  <path fill="#ceb421" stroke="#ceb421" d="M -273 1044 L -221 146 C -176.66666666666666 146, 0.6666666666666643 115, 45 115 C 89.33333333333334 115, 266.6666666666667 177, 311 177 C 355.3333333333333 177, 532.6666666666666 115, 577 115 C 621.3333333333334 115, 798.6666666666666 177, 843 177 L 1043 146 L 1043 1044 Z"></path>
  <path fill="#ccaa1b" stroke="#ccaa1b" d="M -273 1044 L -208 183 C -163.66666666666666 183, 13.666666666666664 152, 58 152 C 102.33333333333334 152, 279.6666666666667 214, 324 214 C 368.3333333333333 214, 545.6666666666666 152, 590 152 C 634.3333333333334 152, 811.6666666666666 214, 856 214 L 1043 183 L 1043 1044 Z"></path>
  <path fill="#c9a016" stroke="#c9a016" d="M -273 1044 L -195 220 C -150.66666666666666 220, 26.666666666666664 189, 71 189 C 115.33333333333334 189, 292.6666666666667 251, 337 251 C 381.3333333333333 251, 558.6666666666666 189, 603 189 C 647.3333333333334 189, 824.6666666666666 251, 869 251 L 1043 220 L 1043 1044 Z"></path>
  <path fill="#c69611" stroke="#c69611" d="M -273 1044 L -182 257 C -137.66666666666666 257, 39.666666666666664 226, 84 226 C 128.33333333333334 226, 305.6666666666667 288, 350 288 C 394.3333333333333 288, 571.6666666666666 226, 616 226 C 660.3333333333334 226, 837.6666666666666 288, 882 288 L 1043 257 L 1043 1044 Z"></path>
  <path fill="#c38c0d" stroke="#c38c0d" d="M -273 1044 L -169 293 C -124.66666666666666 293, 52.666666666666664 262, 97 262 C 141.33333333333334 262, 318.6666666666667 324, 363 324 C 407.3333333333333 324, 584.6666666666666 262, 629 262 C 673.3333333333334 262, 850.6666666666666 324, 895 324 L 1043 293 L 1043 1044 Z"></path>
  <path fill="#bf830b" stroke="#bf830b" d="M -273 1044 L -156 330 C -111.66666666666666 330, 65.66666666666666 299, 110 299 C 154.33333333333334 299, 331.6666666666667 361, 376 361 C 420.3333333333333 361, 597.6666666666666 299, 642 299 C 686.3333333333334 299, 863.6666666666666 361, 908 361 L 1043 330 L 1043 1044 Z"></path>
  <path fill="#bb790a" stroke="#bb790a" d="M -273 1044 L -143 367 C -98.66666666666666 367, 78.66666666666666 336, 123 336 C 167.33333333333334 336, 344.6666666666667 398, 389 398 C 433.3333333333333 398, 610.6666666666666 336, 655 336 C 699.3333333333334 336, 876.6666666666666 398, 921 398 L 1043 367 L 1043 1044 Z"></path>
  <path fill="#b7700a" stroke="#b7700a" d="M -273 1044 L -130 403 C -85.66666666666666 403, 91.66666666666666 372, 136 372 C 180.33333333333334 372, 357.6666666666667 434, 402 434 C 446.3333333333333 434, 623.6666666666666 372, 668 372 C 712.3333333333334 372, 889.6666666666666 434, 934 434 L 1043 403 L 1043 1044 Z"></path>
  <path fill="#b2660a" stroke="#b2660a" d="M -273 1044 L -117 440 C -72.66666666666666 440, 104.66666666666666 409, 149 409 C 193.33333333333334 409, 370.6666666666667 471, 415 471 C 459.3333333333333 471, 636.6666666666666 409, 681 409 C 725.3333333333334 409, 902.6666666666666 471, 947 471 L 1043 440 L 1043 1044 Z"></path>
  <path fill="#ad5d0b" stroke="#ad5d0b" d="M -273 1044 L -104 477 C -59.666666666666664 477, 117.66666666666666 446, 162 446 C 206.33333333333334 446, 383.6666666666667 508, 428 508 C 472.3333333333333 508, 649.6666666666666 446, 694 446 C 738.3333333333334 446, 915.6666666666666 508, 960 508 L 1043 477 L 1043 1044 Z"></path>
  <path fill="#a7540d" stroke="#a7540d" d="M -273 1044 L -91 514 C -46.666666666666664 514, 130.66666666666666 483, 175 483 C 219.33333333333334 483, 396.6666666666667 545, 441 545 C 485.3333333333333 545, 662.6666666666666 483, 707 483 C 751.3333333333334 483, 928.6666666666666 545, 973 545 L 1043 514 L 1043 1044 Z"></path>
  <path fill="#a14a0e" stroke="#a14a0e" d="M -273 1044 L -78 550 C -33.666666666666664 550, 143.66666666666666 519, 188 519 C 232.33333333333334 519, 409.6666666666667 581, 454 581 C 498.3333333333333 581, 675.6666666666666 519, 720 519 C 764.3333333333334 519, 941.6666666666666 581, 986 581 L 1043 550 L 1043 1044 Z"></path>
  <path fill="#9b410f" stroke="#9b410f" d="M -273 1044 L -65 587 C -20.666666666666664 587, 156.66666666666666 556, 201 556 C 245.33333333333334 556, 422.6666666666667 618, 467 618 C 511.3333333333333 618, 688.6666666666666 556, 733 556 C 777.3333333333334 556, 954.6666666666666 618, 999 618 L 1043 587 L 1043 1044 Z"></path>
  <path fill="#953810" stroke="#953810" d="M -273 1044 L -52 624 C -7.666666666666664 624, 169.66666666666666 593, 214 593 C 258.3333333333333 593, 435.6666666666667 655, 480 655 C 524.3333333333334 655, 701.6666666666666 593, 746 593 C 790.3333333333334 593, 967.6666666666666 655, 1012 655 L 1043 624 L 1043 1044 Z"></path>
  <path fill="#8e2f10" stroke="#8e2f10" d="M -273 1044 L -39 660 C 5.333333333333336 660, 182.66666666666666 629, 227 629 C 271.3333333333333 629, 448.6666666666667 691, 493 691 C 537.3333333333334 691, 714.6666666666666 629, 759 629 C 803.3333333333334 629, 980.6666666666666 691, 1025 691 L 1043 660 L 1043 1044 Z"></path>
  <path fill="#872611" stroke="#872611" d="M -273 1044 L -26 697 C 18.333333333333336 697, 195.66666666666666 666, 240 666 C 284.3333333333333 666, 461.6666666666667 728, 506 728 C 550.3333333333334 728, 727.6666666666666 666, 772 666 L 1043 697 L 1043 1044 Z"></path>
  <path fill="#801c11" stroke="#801c11" d="M -273 1044 L -13 734 C 31.333333333333336 734, 208.66666666666666 703, 253 703 C 297.3333333333333 703, 474.6666666666667 765, 519 765 C 563.3333333333334 765, 740.6666666666666 703, 785 703 L 1043 734 L 1043 1044 Z"></path>
  <path fill="#781111" stroke="#781111" d="M -273 1044 L 0 771 C 44.333333333333336 771, 221.66666666666666 740, 266 740 C 310.3333333333333 740, 487.6666666666667 802, 532 802 C 576.3333333333334 802, 753.6666666666666 740, 798 740 L 1043 771 L 1043 1044 Z"></path>
</svg>
