<svg id="svg" class="path" style="background-color: rgb(55, 120, 144);">
  <path fill="#35728b" stroke="#35728b" d="M -200 971 L -200 0 C -186.11111111111111 0, -113.88888888888889 -20, -100 -20 C -86.11111111111111 -20, -13.88888888888889 20, 0 20 C 13.88888888888889 20, 86.11111111111111 -20, 100 -20 C 113.88888888888889 -20, 186.11111111111111 20, 200 20 C 213.88888888888889 20, 286.1111111111111 -20, 300 -20 C 313.8888888888889 -20, 386.1111111111111 20, 400 20 C 413.8888888888889 20, 486.1111111111111 -20, 500 -20 C 513.8888888888889 -20, 586.1111111111111 20, 600 20 C 613.8888888888889 20, 686.1111111111111 -20, 700 -20 C 713.8888888888889 -20, 786.1111111111111 20, 800 20 L 970 0 L 970 971 Z"></path>
  <path fill="#336c86" stroke="#336c86" d="M -200 971 L -190 38 C -176.11111111111111 38, -103.88888888888889 18, -90 18 C -76.11111111111111 18, -3.8888888888888893 58, 10 58 C 23.88888888888889 58, 96.11111111111111 18, 110 18 C 123.88888888888889 18, 196.11111111111111 58, 210 58 C 223.88888888888889 58, 296.1111111111111 18, 310 18 C 323.8888888888889 18, 396.1111111111111 58, 410 58 C 423.8888888888889 58, 496.1111111111111 18, 510 18 C 523.8888888888889 18, 596.1111111111111 58, 610 58 C 623.8888888888889 58, 696.1111111111111 18, 710 18 C 723.8888888888889 18, 796.1111111111111 58, 810 58 L 970 38 L 970 971 Z"></path>
  <path fill="#316681" stroke="#316681" d="M -200 971 L -180 77 C -166.11111111111111 77, -93.88888888888889 57, -80 57 C -66.11111111111111 57, 6.111111111111111 97, 20 97 C 33.888888888888886 97, 106.11111111111111 57, 120 57 C 133.88888888888889 57, 206.11111111111111 97, 220 97 C 233.88888888888889 97, 306.1111111111111 57, 320 57 C 333.8888888888889 57, 406.1111111111111 97, 420 97 C 433.8888888888889 97, 506.1111111111111 57, 520 57 C 533.8888888888889 57, 606.1111111111111 97, 620 97 C 633.8888888888889 97, 706.1111111111111 57, 720 57 C 733.8888888888889 57, 806.1111111111111 97, 820 97 L 970 77 L 970 971 Z"></path>
  <path fill="#30607b" stroke="#30607b" d="M -200 971 L -170 115 C -156.11111111111111 115, -83.88888888888889 95, -70 95 C -56.111111111111114 95, 16.11111111111111 135, 30 135 C 43.888888888888886 135, 116.11111111111111 95, 130 95 C 143.88888888888889 95, 216.11111111111111 135, 230 135 C 243.88888888888889 135, 316.1111111111111 95, 330 95 C 343.8888888888889 95, 416.1111111111111 135, 430 135 C 443.8888888888889 135, 516.1111111111111 95, 530 95 C 543.8888888888889 95, 616.1111111111111 135, 630 135 C 643.8888888888889 135, 716.1111111111111 95, 730 95 C 743.8888888888889 95, 816.1111111111111 135, 830 135 L 970 115 L 970 971 Z"></path>
  <path fill="#2e5a76" stroke="#2e5a76" d="M -200 971 L -160 154 C -146.11111111111111 154, -73.88888888888889 134, -60 134 C -46.111111111111114 134, 26.11111111111111 174, 40 174 C 53.888888888888886 174, 126.11111111111111 134, 140 134 C 153.88888888888889 134, 226.11111111111111 174, 240 174 C 253.88888888888889 174, 326.1111111111111 134, 340 134 C 353.8888888888889 134, 426.1111111111111 174, 440 174 C 453.8888888888889 174, 526.1111111111111 134, 540 134 C 553.8888888888889 134, 626.1111111111111 174, 640 174 C 653.8888888888889 174, 726.1111111111111 134, 740 134 C 753.8888888888889 134, 826.1111111111111 174, 840 174 L 970 154 L 970 971 Z"></path>
  <path fill="#2d5470" stroke="#2d5470" d="M -200 971 L -150 192 C -136.11111111111111 192, -63.888888888888886 172, -50 172 C -36.111111111111114 172, 36.111111111111114 212, 50 212 C 63.888888888888886 212, 136.11111111111111 172, 150 172 C 163.88888888888889 172, 236.11111111111111 212, 250 212 C 263.8888888888889 212, 336.1111111111111 172, 350 172 C 363.8888888888889 172, 436.1111111111111 212, 450 212 C 463.8888888888889 212, 536.1111111111111 172, 550 172 C 563.8888888888889 172, 636.1111111111111 212, 650 212 C 663.8888888888889 212, 736.1111111111111 172, 750 172 C 763.8888888888889 172, 836.1111111111111 212, 850 212 L 970 192 L 970 971 Z"></path>
  <path fill="#2b4f6b" stroke="#2b4f6b" d="M -200 971 L -140 231 C -126.11111111111111 231, -53.888888888888886 211, -40 211 C -26.11111111111111 211, 46.111111111111114 251, 60 251 C 73.88888888888889 251, 146.11111111111111 211, 160 211 C 173.88888888888889 211, 246.11111111111111 251, 260 251 C 273.8888888888889 251, 346.1111111111111 211, 360 211 C 373.8888888888889 211, 446.1111111111111 251, 460 251 C 473.8888888888889 251, 546.1111111111111 211, 560 211 C 573.8888888888889 211, 646.1111111111111 251, 660 251 C 673.8888888888889 251, 746.1111111111111 211, 760 211 C 773.8888888888889 211, 846.1111111111111 251, 860 251 L 970 231 L 970 971 Z"></path>
  <path fill="#2a4965" stroke="#2a4965" d="M -200 971 L -130 269 C -116.11111111111111 269, -43.888888888888886 249, -30 249 C -16.11111111111111 249, 56.111111111111114 289, 70 289 C 83.88888888888889 289, 156.11111111111111 249, 170 249 C 183.88888888888889 249, 256.1111111111111 289, 270 289 C 283.8888888888889 289, 356.1111111111111 249, 370 249 C 383.8888888888889 249, 456.1111111111111 289, 470 289 C 483.8888888888889 289, 556.1111111111111 249, 570 249 C 583.8888888888889 249, 656.1111111111111 289, 670 289 C 683.8888888888889 289, 756.1111111111111 249, 770 249 L 970 269 L 970 971 Z"></path>
  <path fill="#28435f" stroke="#28435f" d="M -200 971 L -120 308 C -106.11111111111111 308, -33.888888888888886 288, -20 288 C -6.111111111111111 288, 66.11111111111111 328, 80 328 C 93.88888888888889 328, 166.11111111111111 288, 180 288 C 193.88888888888889 288, 266.1111111111111 328, 280 328 C 293.8888888888889 328, 366.1111111111111 288, 380 288 C 393.8888888888889 288, 466.1111111111111 328, 480 328 C 493.8888888888889 328, 566.1111111111111 288, 580 288 C 593.8888888888889 288, 666.1111111111111 328, 680 328 C 693.8888888888889 328, 766.1111111111111 288, 780 288 L 970 308 L 970 971 Z"></path>
  <path fill="#273e59" stroke="#273e59" d="M -200 971 L -110 346 C -96.11111111111111 346, -23.88888888888889 326, -10 326 C 3.8888888888888893 326, 76.11111111111111 366, 90 366 C 103.88888888888889 366, 176.11111111111111 326, 190 326 C 203.88888888888889 326, 276.1111111111111 366, 290 366 C 303.8888888888889 366, 376.1111111111111 326, 390 326 C 403.8888888888889 326, 476.1111111111111 366, 490 366 C 503.8888888888889 366, 576.1111111111111 326, 590 326 C 603.8888888888889 326, 676.1111111111111 366, 690 366 C 703.8888888888889 366, 776.1111111111111 326, 790 326 L 970 346 L 970 971 Z"></path>
  <path fill="#253953" stroke="#253953" d="M -200 971 L -100 385 C -86.11111111111111 385, -13.88888888888889 365, 0 365 C 13.88888888888889 365, 86.11111111111111 405, 100 405 C 113.88888888888889 405, 186.11111111111111 365, 200 365 C 213.88888888888889 365, 286.1111111111111 405, 300 405 C 313.8888888888889 405, 386.1111111111111 365, 400 365 C 413.8888888888889 365, 486.1111111111111 405, 500 405 C 513.8888888888889 405, 586.1111111111111 365, 600 365 C 613.8888888888889 365, 686.1111111111111 405, 700 405 C 713.8888888888889 405, 786.1111111111111 365, 800 365 L 970 385 L 970 971 Z"></path>
  <path fill="#24334d" stroke="#24334d" d="M -200 971 L -90 424 C -76.11111111111111 424, -3.8888888888888893 404, 10 404 C 23.88888888888889 404, 96.11111111111111 444, 110 444 C 123.88888888888889 444, 196.11111111111111 404, 210 404 C 223.88888888888889 404, 296.1111111111111 444, 310 444 C 323.8888888888889 444, 396.1111111111111 404, 410 404 C 423.8888888888889 404, 496.1111111111111 444, 510 444 C 523.8888888888889 444, 596.1111111111111 404, 610 404 C 623.8888888888889 404, 696.1111111111111 444, 710 444 C 723.8888888888889 444, 796.1111111111111 404, 810 404 L 970 424 L 970 971 Z"></path>
  <path fill="#222e48" stroke="#222e48" d="M -200 971 L -80 462 C -66.11111111111111 462, 6.111111111111111 442, 20 442 C 33.888888888888886 442, 106.11111111111111 482, 120 482 C 133.88888888888889 482, 206.11111111111111 442, 220 442 C 233.88888888888889 442, 306.1111111111111 482, 320 482 C 333.8888888888889 482, 406.1111111111111 442, 420 442 C 433.8888888888889 442, 506.1111111111111 482, 520 482 C 533.8888888888889 482, 606.1111111111111 442, 620 442 C 633.8888888888889 442, 706.1111111111111 482, 720 482 C 733.8888888888889 482, 806.1111111111111 442, 820 442 L 970 462 L 970 971 Z"></path>
  <path fill="#202942" stroke="#202942" d="M -200 971 L -70 501 C -56.111111111111114 501, 16.11111111111111 481, 30 481 C 43.888888888888886 481, 116.11111111111111 521, 130 521 C 143.88888888888889 521, 216.11111111111111 481, 230 481 C 243.88888888888889 481, 316.1111111111111 521, 330 521 C 343.8888888888889 521, 416.1111111111111 481, 430 481 C 443.8888888888889 481, 516.1111111111111 521, 530 521 C 543.8888888888889 521, 616.1111111111111 481, 630 481 C 643.8888888888889 481, 716.1111111111111 521, 730 521 C 743.8888888888889 521, 816.1111111111111 481, 830 481 L 970 501 L 970 971 Z"></path>
  <path fill="#1e243c" stroke="#1e243c" d="M -200 971 L -60 539 C -46.111111111111114 539, 26.11111111111111 519, 40 519 C 53.888888888888886 519, 126.11111111111111 559, 140 559 C 153.88888888888889 559, 226.11111111111111 519, 240 519 C 253.88888888888889 519, 326.1111111111111 559, 340 559 C 353.8888888888889 559, 426.1111111111111 519, 440 519 C 453.8888888888889 519, 526.1111111111111 559, 540 559 C 553.8888888888889 559, 626.1111111111111 519, 640 519 C 653.8888888888889 519, 726.1111111111111 559, 740 559 C 753.8888888888889 559, 826.1111111111111 519, 840 519 L 970 539 L 970 971 Z"></path>
  <path fill="#1c1f36" stroke="#1c1f36" d="M -200 971 L -50 578 C -36.111111111111114 578, 36.111111111111114 558, 50 558 C 63.888888888888886 558, 136.11111111111111 598, 150 598 C 163.88888888888889 598, 236.11111111111111 558, 250 558 C 263.8888888888889 558, 336.1111111111111 598, 350 598 C 363.8888888888889 598, 436.1111111111111 558, 450 558 C 463.8888888888889 558, 536.1111111111111 598, 550 598 C 563.8888888888889 598, 636.1111111111111 558, 650 558 C 663.8888888888889 558, 736.1111111111111 598, 750 598 C 763.8888888888889 598, 836.1111111111111 558, 850 558 L 970 578 L 970 971 Z"></path>
  <path fill="#191a30" stroke="#191a30" d="M -200 971 L -40 616 C -26.11111111111111 616, 46.111111111111114 596, 60 596 C 73.88888888888889 596, 146.11111111111111 636, 160 636 C 173.88888888888889 636, 246.11111111111111 596, 260 596 C 273.8888888888889 596, 346.1111111111111 636, 360 636 C 373.8888888888889 636, 446.1111111111111 596, 460 596 C 473.8888888888889 596, 546.1111111111111 636, 560 636 C 573.8888888888889 636, 646.1111111111111 596, 660 596 C 673.8888888888889 596, 746.1111111111111 636, 760 636 C 773.8888888888889 636, 846.1111111111111 596, 860 596 L 970 616 L 970 971 Z"></path>
  <path fill="#17152a" stroke="#17152a" d="M -200 971 L -30 655 C -16.11111111111111 655, 56.111111111111114 635, 70 635 C 83.88888888888889 635, 156.11111111111111 675, 170 675 C 183.88888888888889 675, 256.1111111111111 635, 270 635 C 283.8888888888889 635, 356.1111111111111 675, 370 675 C 383.8888888888889 675, 456.1111111111111 635, 470 635 C 483.8888888888889 635, 556.1111111111111 675, 570 675 C 583.8888888888889 675, 656.1111111111111 635, 670 635 C 683.8888888888889 635, 756.1111111111111 675, 770 675 L 970 655 L 970 971 Z"></path>
  <path fill="#151025" stroke="#151025" d="M -200 971 L -20 693 C -6.111111111111111 693, 66.11111111111111 673, 80 673 C 93.88888888888889 673, 166.11111111111111 713, 180 713 C 193.88888888888889 713, 266.1111111111111 673, 280 673 C 293.8888888888889 673, 366.1111111111111 713, 380 713 C 393.8888888888889 713, 466.1111111111111 673, 480 673 C 493.8888888888889 673, 566.1111111111111 713, 580 713 C 593.8888888888889 713, 666.1111111111111 673, 680 673 C 693.8888888888889 673, 766.1111111111111 713, 780 713 L 970 693 L 970 971 Z"></path>
  <path fill="#13081f" stroke="#13081f" d="M -200 971 L -10 732 C 3.8888888888888893 732, 76.11111111111111 712, 90 712 C 103.88888888888889 712, 176.11111111111111 752, 190 752 C 203.88888888888889 752, 276.1111111111111 712, 290 712 C 303.8888888888889 712, 376.1111111111111 752, 390 752 C 403.8888888888889 752, 476.1111111111111 712, 490 712 C 503.8888888888889 712, 576.1111111111111 752, 590 752 C 603.8888888888889 752, 676.1111111111111 712, 690 712 C 703.8888888888889 712, 776.1111111111111 752, 790 752 L 970 732 L 970 971 Z"></path>
  <path fill="#0f001a" stroke="#0f001a" d="M -200 971 L 0 771 C 13.88888888888889 771, 86.11111111111111 751, 100 751 C 113.88888888888889 751, 186.11111111111111 791, 200 791 C 213.88888888888889 791, 286.1111111111111 751, 300 751 C 313.8888888888889 751, 386.1111111111111 791, 400 791 C 413.8888888888889 791, 486.1111111111111 751, 500 751 C 513.8888888888889 751, 586.1111111111111 791, 600 791 C 613.8888888888889 791, 686.1111111111111 751, 700 751 C 713.8888888888889 751, 786.1111111111111 791, 800 791 L 970 771 L 970 971 Z"></path>
</svg>
